<mxfile host="app.diagrams.net" agent="Mozilla/5.0 (Macintosh; Intel Mac OS X 10.15; rv:143.0) Gecko/20100101 Firefox/143.0" version="28.2.5">
  <diagram name="Page-1" id="whApyk706rrMYBj68wfh">
    <mxGraphModel dx="946" dy="648" grid="1" gridSize="10" guides="1" tooltips="1" connect="1" arrows="1" fold="1" page="1" pageScale="1" pageWidth="850" pageHeight="1100" math="0" shadow="0">
      <root>
        <mxCell id="0" />
        <mxCell id="1" parent="0" />
        <mxCell id="lWTRtSVzMxc-5HAPLnIa-2" value="Log into website" style="rounded=1;whiteSpace=wrap;html=1;" parent="1" vertex="1">
          <mxGeometry x="140" y="130" width="120" height="60" as="geometry" />
        </mxCell>
        <mxCell id="lWTRtSVzMxc-5HAPLnIa-3" value="Type into the text box your post" style="rounded=1;whiteSpace=wrap;html=1;" parent="1" vertex="1">
          <mxGeometry x="410" y="130" width="120" height="60" as="geometry" />
        </mxCell>
        <mxCell id="lWTRtSVzMxc-5HAPLnIa-15" style="edgeStyle=orthogonalEdgeStyle;rounded=0;orthogonalLoop=1;jettySize=auto;html=1;entryX=1;entryY=0.5;entryDx=0;entryDy=0;" parent="1" source="lWTRtSVzMxc-5HAPLnIa-4" target="lWTRtSVzMxc-5HAPLnIa-13" edge="1">
          <mxGeometry relative="1" as="geometry" />
        </mxCell>
        <mxCell id="lWTRtSVzMxc-5HAPLnIa-4" value="Post is now uploaded to db&amp;nbsp;" style="rounded=1;whiteSpace=wrap;html=1;" parent="1" vertex="1">
          <mxGeometry x="560" y="250" width="120" height="60" as="geometry" />
        </mxCell>
        <mxCell id="lWTRtSVzMxc-5HAPLnIa-8" value="" style="endArrow=classic;html=1;rounded=0;exitX=1;exitY=0.5;exitDx=0;exitDy=0;" parent="1" source="lWTRtSVzMxc-5HAPLnIa-2" target="lWTRtSVzMxc-5HAPLnIa-3" edge="1">
          <mxGeometry relative="1" as="geometry">
            <mxPoint x="370" y="250" as="sourcePoint" />
            <mxPoint x="409" y="160" as="targetPoint" />
          </mxGeometry>
        </mxCell>
        <mxCell id="lWTRtSVzMxc-5HAPLnIa-9" value="sent to home page" style="edgeLabel;resizable=0;html=1;;align=center;verticalAlign=middle;" parent="lWTRtSVzMxc-5HAPLnIa-8" connectable="0" vertex="1">
          <mxGeometry relative="1" as="geometry" />
        </mxCell>
        <mxCell id="lWTRtSVzMxc-5HAPLnIa-10" value="" style="endArrow=classic;html=1;rounded=0;exitX=1;exitY=0.5;exitDx=0;exitDy=0;entryX=0.5;entryY=0;entryDx=0;entryDy=0;" parent="1" source="lWTRtSVzMxc-5HAPLnIa-3" target="lWTRtSVzMxc-5HAPLnIa-4" edge="1">
          <mxGeometry relative="1" as="geometry">
            <mxPoint x="370" y="250" as="sourcePoint" />
            <mxPoint x="470" y="250" as="targetPoint" />
            <Array as="points">
              <mxPoint x="620" y="160" />
            </Array>
          </mxGeometry>
        </mxCell>
        <mxCell id="lWTRtSVzMxc-5HAPLnIa-11" value="Click post button&amp;nbsp;" style="edgeLabel;resizable=0;html=1;;align=center;verticalAlign=middle;" parent="lWTRtSVzMxc-5HAPLnIa-10" connectable="0" vertex="1">
          <mxGeometry relative="1" as="geometry" />
        </mxCell>
        <mxCell id="lWTRtSVzMxc-5HAPLnIa-14" style="edgeStyle=orthogonalEdgeStyle;rounded=0;orthogonalLoop=1;jettySize=auto;html=1;entryX=0;entryY=0.5;entryDx=0;entryDy=0;" parent="1" source="lWTRtSVzMxc-5HAPLnIa-12" target="lWTRtSVzMxc-5HAPLnIa-2" edge="1">
          <mxGeometry relative="1" as="geometry" />
        </mxCell>
        <mxCell id="lWTRtSVzMxc-5HAPLnIa-12" value="Start" style="ellipse;whiteSpace=wrap;html=1;aspect=fixed;" parent="1" vertex="1">
          <mxGeometry x="60" y="145" width="30" height="30" as="geometry" />
        </mxCell>
        <mxCell id="lWTRtSVzMxc-5HAPLnIa-13" value="&lt;div&gt;End&lt;/div&gt;" style="ellipse;whiteSpace=wrap;html=1;aspect=fixed;" parent="1" vertex="1">
          <mxGeometry x="455" y="265" width="30" height="30" as="geometry" />
        </mxCell>
      </root>
    </mxGraphModel>
  </diagram>
</mxfile>
